<?xml version="1.0" encoding="utf-8"?>
<!-- Generator: Adobe Illustrator 21.1.0, SVG Export Plug-In . SVG Version: 6.00 Build 0)  -->
<svg version="1.1" id="Capa_1" xmlns="http://www.w3.org/2000/svg" xmlns:xlink="http://www.w3.org/1999/xlink" x="0px" y="0px"
	 width="39px" height="52.8px" viewBox="0 0 39 52.8" style="enable-background:new 0 0 39 52.8;" xml:space="preserve">
<style type="text/css">
	.st0{fill:#FFFFFF;}
	.st1{fill:none;stroke:#000000;stroke-width:2.4378;stroke-linecap:round;stroke-linejoin:bevel;stroke-miterlimit:10;}
	.st2{fill-rule:evenodd;clip-rule:evenodd;}
	.st3{fill:none;stroke:#000000;stroke-width:2.1543;stroke-linecap:round;stroke-linejoin:bevel;stroke-miterlimit:10;}
	.st4{fill:none;stroke:#000000;stroke-width:1.8142;stroke-linecap:round;stroke-linejoin:bevel;stroke-miterlimit:10;}
	.st5{fill:none;stroke:#000000;stroke-width:1.4457;stroke-linecap:round;stroke-linejoin:bevel;stroke-miterlimit:10;}
	.st6{fill-rule:evenodd;clip-rule:evenodd;fill:#FFFFFF;}
	.st7{fill:none;stroke:#000000;stroke-width:0.7087;stroke-linecap:round;stroke-linejoin:bevel;stroke-miterlimit:10;}
	.st8{fill:none;stroke:#000000;stroke-width:0.5669;stroke-linecap:round;stroke-linejoin:bevel;stroke-miterlimit:10;}
</style>
<rect class="st0" width="39.5" height="52.8"/>
<line class="st1" x1="13.6" y1="12.9" x2="8.9" y2="12.9"/>
<line class="st1" x1="30.5" y1="38.1" x2="30.5" y2="33.7"/>
<path class="st1" d="M30.5,33.7"/>
<line class="st1" x1="8.9" y1="20.1" x2="11.8" y2="20.1"/>
<circle class="st2" cx="11.8" cy="20.1" r="1.2"/>
<line class="st1" x1="11.8" y1="20.1" x2="13.9" y2="22.2"/>
<circle class="st2" cx="13.9" cy="22.2" r="1.2"/>
<line class="st1" x1="13.9" y1="22.2" x2="13.9" y2="31.3"/>
<circle class="st2" cx="13.9" cy="31.3" r="1.2"/>
<line class="st1" x1="13.9" y1="31.3" x2="8.9" y2="36.3"/>
<circle class="st2" cx="8.9" cy="36.3" r="1.2"/>
<line class="st1" x1="8.9" y1="36.3" x2="8.9" y2="38.1"/>
<line class="st1" x1="16.1" y1="38.1" x2="17.9" y2="36.3"/>
<circle class="st2" cx="17.9" cy="36.3" r="1.2"/>
<line class="st1" x1="17.9" y1="36.3" x2="17.9" y2="29.5"/>
<circle class="st2" cx="17.9" cy="29.5" r="1.2"/>
<line class="st1" x1="17.9" y1="29.5" x2="27.3" y2="20.1"/>
<circle class="st2" cx="27.3" cy="20.1" r="1.2"/>
<line class="st1" x1="27.3" y1="20.1" x2="30.5" y2="20.1"/>
<line class="st1" x1="23.3" y1="38.1" x2="23.3" y2="33.1"/>
<circle class="st2" cx="23.3" cy="33.1" r="1.2"/>
<line class="st1" x1="23.3" y1="33.1" x2="29.1" y2="27.3"/>
<circle class="st2" cx="29.1" cy="27.3" r="1.2"/>
<line class="st1" x1="29.1" y1="27.3" x2="30.5" y2="27.3"/>
<line class="st1" x1="8.9" y1="45.3" x2="6.4" y2="45.3"/>
<line class="st1" x1="3.5" y1="5.7" x2="8.9" y2="5.7"/>
<circle class="st2" cx="4.9" cy="50" r="1.1"/>
<circle class="st2" cx="2.8" cy="47.9" r="1.1"/>
<line class="st3" x1="4.9" y1="50" x2="2.8" y2="47.9"/>
<circle class="st2" cx="2.8" cy="47.9" r="1.1"/>
<line class="st3" x1="2.8" y1="47.9" x2="2.8" y2="33.4"/>
<circle class="st2" cx="2.8" cy="33.4" r="1.1"/>
<line class="st3" x1="2.8" y1="33.4" x2="8.9" y2="27.3"/>
<circle class="st2" cx="27.3" cy="50" r="1.1"/>
<circle class="st2" cx="4.9" cy="50" r="1.1"/>
<line class="st3" x1="27.3" y1="50" x2="4.9" y2="50"/>
<circle class="st2" cx="30.5" cy="46.7" r="1.1"/>
<circle class="st2" cx="27.3" cy="50" r="1.1"/>
<line class="st3" x1="30.5" y1="46.7" x2="27.3" y2="50"/>
<circle class="st2" cx="30.5" cy="46.7" r="1.1"/>
<line class="st3" x1="30.5" y1="45.3" x2="30.5" y2="46.7"/>
<circle class="st2" cx="26.6" cy="41.7" r="0.9"/>
<line class="st4" x1="23.3" y1="45.3" x2="23.3" y2="44.9"/>
<circle class="st2" cx="23.3" cy="44.9" r="0.9"/>
<line class="st4" x1="23.3" y1="44.9" x2="26.6" y2="41.7"/>
<circle class="st2" cx="26.6" cy="41.7" r="0.7"/>
<circle class="st2" cx="34.8" cy="41.7" r="0.7"/>
<line class="st5" x1="26.6" y1="41.7" x2="34.8" y2="41.7"/>
<circle class="st2" cx="34.8" cy="41.7" r="1.2"/>
<line class="st1" x1="34.8" y1="41.7" x2="36.3" y2="40.3"/>
<circle class="st2" cx="36.3" cy="40.3" r="1.2"/>
<line class="st1" x1="36.3" y1="40.3" x2="36.3" y2="16.1"/>
<circle class="st2" cx="36.3" cy="16.1" r="1.2"/>
<line class="st1" x1="36.3" y1="16.1" x2="33.1" y2="12.9"/>
<circle class="st2" cx="33.1" cy="12.9" r="1.2"/>
<line class="st1" x1="33.1" y1="12.9" x2="30.5" y2="12.9"/>
<line class="st1" x1="16.1" y1="45.3" x2="16.1" y2="42.8"/>
<line class="st1" x1="35.9" y1="5.7" x2="30.5" y2="5.7"/>
<circle class="st2" cx="30.5" cy="33.7" r="1.1"/>
<circle class="st6" cx="30.5" cy="33.7" r="0.3"/>
<circle class="st2" cx="30.5" cy="33.7" r="1.4"/>
<circle class="st6" cx="30.5" cy="33.7" r="0.5"/>
<circle class="st2" cx="13.6" cy="12.9" r="1.4"/>
<circle class="st6" cx="13.6" cy="12.9" r="0.5"/>
<circle class="st2" cx="6.4" cy="45.3" r="1.4"/>
<circle class="st6" cx="6.4" cy="45.3" r="0.5"/>
<circle class="st2" cx="3.5" cy="5.7" r="1.4"/>
<circle class="st6" cx="3.5" cy="5.7" r="0.5"/>
<circle class="st2" cx="16.1" cy="42.8" r="1.4"/>
<circle class="st6" cx="16.1" cy="42.8" r="0.5"/>
<circle class="st2" cx="35.9" cy="5.7" r="1.4"/>
<circle class="st6" cx="35.9" cy="5.7" r="0.5"/>
<polygon class="st2" points="24.1,12.1 24.1,16.3 15.4,25 15.4,20.8 11.6,20.8 11.6,19.3 15.4,19.3 15.4,18.1 15.8,18.1 18.8,15.1 
	18.8,10.7 15.8,7.7 15.4,7.7 15.4,2.1 24.1,2.1 "/>
<circle class="st2" cx="24.1" cy="12.1" r="1.2"/>
<line class="st1" x1="24.1" y1="12.1" x2="24.1" y2="16.3"/>
<circle class="st2" cx="24.1" cy="16.3" r="1.2"/>
<line class="st1" x1="24.1" y1="16.3" x2="15.4" y2="25"/>
<circle class="st2" cx="15.4" cy="25" r="1.2"/>
<line class="st1" x1="15.4" y1="25" x2="15.4" y2="20.8"/>
<circle class="st2" cx="15.4" cy="20.8" r="1.2"/>
<line class="st1" x1="15.4" y1="20.8" x2="11.6" y2="20.8"/>
<circle class="st2" cx="11.6" cy="20.8" r="1.2"/>
<line class="st1" x1="11.6" y1="20.8" x2="11.6" y2="19.3"/>
<circle class="st2" cx="11.6" cy="19.3" r="1.2"/>
<line class="st1" x1="11.6" y1="19.3" x2="15.4" y2="19.3"/>
<circle class="st2" cx="15.4" cy="19.3" r="1.2"/>
<line class="st1" x1="15.4" y1="19.3" x2="15.4" y2="18.1"/>
<circle class="st2" cx="15.4" cy="18.1" r="1.2"/>
<line class="st1" x1="15.4" y1="18.1" x2="15.8" y2="18.1"/>
<circle class="st2" cx="15.8" cy="18.1" r="1.2"/>
<line class="st1" x1="15.8" y1="18.1" x2="18.8" y2="15.1"/>
<circle class="st2" cx="18.8" cy="15.1" r="1.2"/>
<line class="st1" x1="18.8" y1="15.1" x2="18.8" y2="10.7"/>
<circle class="st2" cx="18.8" cy="10.7" r="1.2"/>
<line class="st1" x1="18.8" y1="10.7" x2="15.8" y2="7.7"/>
<circle class="st2" cx="15.8" cy="7.7" r="1.2"/>
<line class="st1" x1="15.8" y1="7.7" x2="15.4" y2="7.7"/>
<circle class="st2" cx="15.4" cy="7.7" r="1.2"/>
<line class="st1" x1="15.4" y1="7.7" x2="15.4" y2="2.1"/>
<circle class="st2" cx="15.4" cy="2.1" r="1.2"/>
<line class="st1" x1="15.4" y1="2.1" x2="24.1" y2="2.1"/>
<circle class="st2" cx="24.1" cy="2.1" r="1.2"/>
<line class="st1" x1="24.1" y1="2.1" x2="24.1" y2="12.1"/>
<polygon class="st2" points="2.5,12.1 2.5,19.3 6.3,19.3 6.3,20.8 2.5,20.8 2.5,26.9 2.1,27.3 2.1,10.9 2.5,10.9 "/>
<circle class="st2" cx="2.5" cy="12.1" r="1.2"/>
<line class="st1" x1="2.5" y1="12.1" x2="2.5" y2="19.3"/>
<circle class="st2" cx="2.5" cy="19.3" r="1.2"/>
<line class="st1" x1="2.5" y1="19.3" x2="6.3" y2="19.3"/>
<circle class="st2" cx="6.3" cy="19.3" r="1.2"/>
<line class="st1" x1="6.3" y1="19.3" x2="6.3" y2="20.8"/>
<circle class="st2" cx="6.3" cy="20.8" r="1.2"/>
<line class="st1" x1="6.3" y1="20.8" x2="2.5" y2="20.8"/>
<circle class="st2" cx="2.5" cy="20.8" r="1.2"/>
<line class="st1" x1="2.5" y1="20.8" x2="2.5" y2="26.9"/>
<circle class="st2" cx="2.5" cy="26.9" r="1.2"/>
<line class="st1" x1="2.5" y1="26.9" x2="2.1" y2="27.3"/>
<circle class="st2" cx="2.1" cy="27.3" r="1.2"/>
<line class="st1" x1="2.1" y1="27.3" x2="2.1" y2="10.9"/>
<circle class="st2" cx="2.1" cy="10.9" r="1.2"/>
<line class="st1" x1="2.1" y1="10.9" x2="2.5" y2="10.9"/>
<circle class="st2" cx="2.5" cy="10.9" r="1.2"/>
<line class="st1" x1="2.5" y1="10.9" x2="2.5" y2="12.1"/>
<polygon class="st2" points="37.4,50.7 36.4,50.7 36.4,46.7 36.9,46.7 37.4,46.2 "/>
<circle class="st2" cx="37.4" cy="50.7" r="1.2"/>
<line class="st1" x1="37.4" y1="50.7" x2="36.4" y2="50.7"/>
<circle class="st2" cx="36.4" cy="50.7" r="1.2"/>
<line class="st1" x1="36.4" y1="50.7" x2="36.4" y2="46.7"/>
<circle class="st2" cx="36.4" cy="46.7" r="1.2"/>
<line class="st1" x1="36.4" y1="46.7" x2="36.9" y2="46.7"/>
<circle class="st2" cx="36.9" cy="46.7" r="1.2"/>
<line class="st1" x1="36.9" y1="46.7" x2="37.4" y2="46.2"/>
<circle class="st2" cx="37.4" cy="46.2" r="1.2"/>
<line class="st1" x1="37.4" y1="46.2" x2="37.4" y2="50.7"/>
<polygon class="st2" points="10.2,36.1 9.9,35.8 8,35.8 7.6,36.1 7.6,35.4 9.3,33.7 10.2,33.7 "/>
<circle class="st2" cx="10.2" cy="36.1" r="1.2"/>
<line class="st1" x1="10.2" y1="36.1" x2="9.9" y2="35.8"/>
<circle class="st2" cx="9.9" cy="35.8" r="1.2"/>
<line class="st1" x1="9.9" y1="35.8" x2="8" y2="35.8"/>
<circle class="st2" cx="8" cy="35.8" r="1.2"/>
<line class="st1" x1="8" y1="35.8" x2="7.6" y2="36.1"/>
<circle class="st2" cx="7.6" cy="36.1" r="1.2"/>
<line class="st1" x1="7.6" y1="36.1" x2="7.6" y2="35.4"/>
<circle class="st2" cx="7.6" cy="35.4" r="1.2"/>
<line class="st1" x1="7.6" y1="35.4" x2="9.3" y2="33.7"/>
<circle class="st2" cx="9.3" cy="33.7" r="1.2"/>
<line class="st1" x1="9.3" y1="33.7" x2="10.2" y2="33.7"/>
<circle class="st2" cx="10.2" cy="33.7" r="1.2"/>
<line class="st1" x1="10.2" y1="33.7" x2="10.2" y2="36.1"/>
<circle class="st2" cx="8.9" cy="38.1" r="0.3"/>
<line class="st7" x1="8.9" y1="35.8" x2="8.9" y2="38.1"/>
<circle class="st2" cx="8.9" cy="20.1" r="0.3"/>
<line class="st7" x1="6.3" y1="20.1" x2="8.9" y2="20.1"/>
<circle class="st2" cx="8.9" cy="20.1" r="0.3"/>
<line class="st7" x1="11.6" y1="20.1" x2="8.9" y2="20.1"/>
<rect x="6.4" y="42.8" width="5" height="5"/>
<circle class="st6" cx="8.9" cy="45.3" r="0.5"/>
<rect x="13.6" y="42.8" width="5" height="5"/>
<circle class="st6" cx="16.1" cy="45.3" r="0.5"/>
<rect x="21.2" y="43.1" width="4.3" height="4.3"/>
<circle class="st6" cx="23.3" cy="45.3" r="0.9"/>
<rect x="28.4" y="43.1" width="4.3" height="4.3"/>
<circle class="st6" cx="30.5" cy="45.3" r="0.9"/>
<rect x="6.4" y="35.6" width="5" height="5"/>
<circle class="st6" cx="8.9" cy="38.1" r="0.5"/>
<rect x="14" y="35.9" width="4.3" height="4.3"/>
<circle class="st6" cx="16.1" cy="38.1" r="0.9"/>
<rect x="21.2" y="35.9" width="4.3" height="4.3"/>
<circle class="st6" cx="23.3" cy="38.1" r="0.9"/>
<rect x="28.4" y="35.9" width="4.3" height="4.3"/>
<circle class="st6" cx="30.5" cy="38.1" r="0.9"/>
<rect x="27.8" y="3" width="5.4" height="5.4"/>
<circle class="st6" cx="30.5" cy="5.7" r="0.9"/>
<rect x="27.8" y="10.2" width="5.4" height="5.4"/>
<circle class="st6" cx="30.5" cy="12.9" r="0.9"/>
<rect x="27.8" y="17.4" width="5.4" height="5.4"/>
<circle class="st6" cx="30.5" cy="20.1" r="0.9"/>
<rect x="27.8" y="24.6" width="5.4" height="5.4"/>
<circle class="st6" cx="30.5" cy="27.3" r="0.9"/>
<rect x="6.2" y="3" width="5.4" height="5.4"/>
<circle class="st6" cx="8.9" cy="5.7" r="0.9"/>
<rect x="6.2" y="10.2" width="5.4" height="5.4"/>
<circle class="st6" cx="8.9" cy="12.9" r="0.9"/>
<rect x="6.2" y="17.4" width="5.4" height="5.4"/>
<circle class="st6" cx="8.9" cy="20.1" r="0.9"/>
<rect x="6.2" y="24.6" width="5.4" height="5.4"/>
<circle class="st6" cx="8.9" cy="27.3" r="0.9"/>
<rect x="0.3" y="0.3" class="st8" width="38.9" height="52.2"/>
</svg>
