<?xml version="1.0" encoding="utf-8"?>
<!-- Generator: Adobe Illustrator 21.1.0, SVG Export Plug-In . SVG Version: 6.00 Build 0)  -->
<svg version="1.1" id="Capa_1" xmlns="http://www.w3.org/2000/svg" xmlns:xlink="http://www.w3.org/1999/xlink" x="0px" y="0px"
	 width="39px" height="52.8px" viewBox="0 0 39 52.8" style="enable-background:new 0 0 39 52.8;" xml:space="preserve">
<style type="text/css">
	.st0{fill:#FFFFFF;}
	.st1{fill:none;stroke:#000000;stroke-width:2.4378;stroke-linecap:round;stroke-linejoin:bevel;stroke-miterlimit:10;}
	.st2{fill-rule:evenodd;clip-rule:evenodd;}
	.st3{fill:none;stroke:#000000;stroke-width:1.4457;stroke-linecap:round;stroke-linejoin:bevel;stroke-miterlimit:10;}
	.st4{fill-rule:evenodd;clip-rule:evenodd;fill:#FFFFFF;}
	.st5{fill:none;stroke:#000000;stroke-width:0.5669;stroke-linecap:round;stroke-linejoin:bevel;stroke-miterlimit:10;}
</style>
<rect class="st0" width="39.5" height="52.8"/>
<line class="st1" x1="8.9" y1="33.7" x2="11.9" y2="33.7"/>
<circle class="st2" cx="11.9" cy="33.7" r="1.2"/>
<line class="st1" x1="11.9" y1="33.7" x2="19" y2="26.6"/>
<circle class="st2" cx="19" cy="26.6" r="1.2"/>
<line class="st1" x1="19" y1="26.6" x2="19" y2="19.7"/>
<circle class="st2" cx="19" cy="19.7" r="1.2"/>
<line class="st1" x1="19" y1="19.7" x2="25.9" y2="12.9"/>
<line class="st1" x1="33.1" y1="45.3" x2="34.6" y2="45.3"/>
<circle class="st2" cx="34.6" cy="45.3" r="1.2"/>
<line class="st1" x1="34.6" y1="45.3" x2="35.9" y2="44"/>
<circle class="st2" cx="35.9" cy="44" r="1.2"/>
<line class="st1" x1="35.9" y1="44" x2="35.9" y2="5.7"/>
<circle class="st2" cx="4.6" cy="41.7" r="0.7"/>
<line class="st3" x1="23.3" y1="42.8" x2="22.3" y2="41.7"/>
<circle class="st2" cx="22.3" cy="41.7" r="0.7"/>
<line class="st3" x1="22.3" y1="41.7" x2="4.6" y2="41.7"/>
<circle class="st2" cx="4.6" cy="41.7" r="1.2"/>
<line class="st1" x1="4.6" y1="41.7" x2="3.5" y2="40.6"/>
<circle class="st2" cx="3.5" cy="40.6" r="1.2"/>
<line class="st1" x1="3.5" y1="40.6" x2="3.5" y2="5.7"/>
<circle class="st2" cx="8.9" cy="33.7" r="1.1"/>
<circle class="st4" cx="8.9" cy="33.7" r="0.3"/>
<circle class="st2" cx="8.9" cy="33.7" r="1.4"/>
<circle class="st4" cx="8.9" cy="33.7" r="0.5"/>
<circle class="st2" cx="25.9" cy="12.9" r="1.4"/>
<circle class="st4" cx="25.9" cy="12.9" r="0.5"/>
<circle class="st2" cx="33.1" cy="45.3" r="1.4"/>
<circle class="st4" cx="33.1" cy="45.3" r="0.5"/>
<circle class="st2" cx="35.9" cy="5.7" r="1.4"/>
<circle class="st4" cx="35.9" cy="5.7" r="0.5"/>
<circle class="st2" cx="23.3" cy="42.8" r="1.4"/>
<circle class="st4" cx="23.3" cy="42.8" r="0.5"/>
<circle class="st2" cx="3.5" cy="5.7" r="1.4"/>
<circle class="st4" cx="3.5" cy="5.7" r="0.5"/>
<rect x="6.2" y="3" width="5.4" height="5.4"/>
<circle class="st4" cx="8.9" cy="5.7" r="0.9"/>
<rect x="6.2" y="10.2" width="5.4" height="5.4"/>
<circle class="st4" cx="8.9" cy="12.9" r="0.9"/>
<rect x="6.2" y="17.4" width="5.4" height="5.4"/>
<circle class="st4" cx="8.9" cy="20.1" r="0.9"/>
<rect x="6.2" y="24.6" width="5.4" height="5.4"/>
<circle class="st4" cx="8.9" cy="27.3" r="0.9"/>
<rect x="27.8" y="3" width="5.4" height="5.4"/>
<circle class="st4" cx="30.5" cy="5.7" r="0.9"/>
<rect x="27.8" y="10.2" width="5.4" height="5.4"/>
<circle class="st4" cx="30.5" cy="12.9" r="0.9"/>
<rect x="27.8" y="17.4" width="5.4" height="5.4"/>
<circle class="st4" cx="30.5" cy="20.1" r="0.9"/>
<rect x="27.8" y="24.6" width="5.4" height="5.4"/>
<circle class="st4" cx="30.5" cy="27.3" r="0.9"/>
<rect x="0.3" y="0.3" class="st5" width="38.9" height="52.2"/>
</svg>
